<?xml version="1.0" standalone="no"?>
<!DOCTYPE svg PUBLIC "-//W3C//DTD SVG 1.1//EN" "http://www.w3.org/Graphics/SVG/1.1/DTD/svg11.dtd" >
<svg xmlns="http://www.w3.org/2000/svg">
<metadata>
This is a custom SVG webfont generated by Font Squirrel.
Copyright   : 200911 Copyright Jean Francois Porchez Porchez Typofonderie All rights reserved Distributed exclusively by Porchez Typofonderie France Allumi is a squared sanserif typeface available in 9 weights and several widths This font software may not be reproduced modified disclosed or transfered without the express written approval of Jean Francois Porchez Porchez Typofonderie SES Allumi is a special version who follow same license restriction as the original Allumi PTF It include 6 series  a special Headlines Bold
Designer    : Jean Francois Porchez
Foundry     : Jean Francois Porchez
Foundry URL : httpwwwtypofonderiecom
</metadata>
<defs>
<font id="SESAllumiRegular" horiz-adv-x="1136" >
<font-face units-per-em="2048" ascent="1638" descent="-410" />
<missing-glyph horiz-adv-x="567" />
<glyph unicode=" "  horiz-adv-x="567" />
<glyph unicode="&#x09;" horiz-adv-x="567" />
<glyph unicode="&#xa0;" horiz-adv-x="567" />
<glyph unicode="!" horiz-adv-x="546" d="M168 0v223h211v-223h-25h-186zM176 1470h195l-17 -1058h-159z" />
<glyph unicode="&#x22;" horiz-adv-x="927" d="M174 1470h191l-21 -550h-149zM563 1470h191l-21 -550h-149z" />
<glyph unicode="#" d="M80 428v147h205l59 277h-264v149h295l86 402h127l-88 -402h256l86 402h127l-86 -402h172v-149h-203l-59 -277h262v-147h-293l-90 -428h-127l90 428h-254l-90 -428h-127l90 428h-174zM412 575h256l57 277h-256z" />
<glyph unicode="$" d="M113 1036q0 217 157 320q86 53 213 67v236h148v-227q137 -2 330 -23v-158q-184 20 -330 23v-481q96 -27 156.5 -53.5t122 -71.5t90 -116t28.5 -169q0 -100 -41 -191.5t-125 -142.5q-90 -55 -231 -69v-236h-148v227q-186 0 -368 21v166q213 -23 368 -23v510 q-197 53 -283.5 144t-86.5 247zM276 1053q0 -156 158 -209l23.5 -7.5t25.5 -9.5v441q-59 -6 -102 -27q-105 -49 -105 -188zM631 141q74 6 123 31q111 49 110 197q0 164 -170 219q-14 6 -63 20v-467z" />
<glyph unicode="%" horiz-adv-x="1796" d="M39 950q0 236 84 359q78 113 233 112q152 0 230 -108q92 -117 92 -365q0 -244 -86 -360q-76 -113 -234 -113q-147 0 -227 105q-92 120 -92 370zM203 954q0 -188 34.5 -272t120.5 -84q84 0 120 81t36 265q0 186 -36 270t-122 84q-84 0 -118.5 -81t-34.5 -263zM401 0 l816 1403h180l-819 -1403h-177zM1118 459q0 236 84 358q80 113 234 113q152 0 229 -109q92 -117 92 -364q0 -244 -86 -361q-76 -113 -233 -112q-147 0 -228 104q-92 121 -92 371zM1282 463q0 -188 35 -272.5t121 -84.5q84 0 119.5 81t35.5 266q0 186 -35.5 270t-121.5 84 q-84 0 -119 -81t-35 -263z" />
<glyph unicode="&#x26;" horiz-adv-x="1519" d="M137 358q0 141 52.5 225.5t150.5 133.5q-76 78 -111.5 156.5t-35.5 189.5q0 199 129 291q109 78 301 78q186 0 290 -82q117 -88 117 -254q0 -160 -91 -241t-296 -163l430 -356q55 113 55 344v45h187v-45q0 -295 -105 -455l281 -225h-287l-127 102q-143 -131 -420 -131 q-256 0 -385 92q-135 98 -135 295zM330 369q0 -131 84 -192.5t256 -61.5q184 0 276 90l-491 405q-125 -63 -125 -241zM383 1069q0 -84 33 -145.5t110 -130.5q182 70 248 130t66 156q0 209 -221 209q-123 0 -179.5 -54t-56.5 -165z" />
<glyph unicode="'" horiz-adv-x="536" d="M174 1470h191l-21 -550h-149z" />
<glyph unicode="(" horiz-adv-x="667" d="M152 518q0 305 88 533.5t229 425.5h172q-315 -446 -315 -959q0 -514 315 -960h-172q-143 201 -230 427t-87 533z" />
<glyph unicode=")" horiz-adv-x="667" d="M29 -442q313 444 313 960q0 514 -313 959h170q141 -197 229 -425.5t88 -533.5q0 -307 -87 -533.5t-230 -426.5h-170z" />
<glyph unicode="*" horiz-adv-x="1034" d="M86 1102l49 149l324 -129l-21 348h158l-23 -348l326 127l47 -149l-338 -88l221 -269l-127 -92l-188 295l-186 -295l-129 94l223 269z" />
<glyph unicode="+" d="M88 446v168h395v408h170v-408h396v-168h-396v-407h-170v407h-395z" />
<glyph unicode="," horiz-adv-x="567" d="M6 -379q141 360 209 612h199q-86 -276 -242 -612h-166z" />
<glyph unicode="-" horiz-adv-x="567" d="M35 434v166h495v-166h-495z" />
<glyph unicode="." horiz-adv-x="567" d="M178 0v227h211v-227h-211z" />
<glyph unicode="/" horiz-adv-x="567" d="M-12 0l426 1403h166l-424 -1403h-168z" />
<glyph unicode="0" d="M102 705q0 375 121 550q115 176 344 177q225 0 342 -170q127 -176 127 -562q0 -373 -121 -553q-119 -174 -346 -174q-223 0 -340 170q-127 175 -127 562zM297 707q0 -303 61.5 -441.5t210.5 -138.5q147 0 209 135t62 436q0 303 -61.5 440.5t-211.5 137.5 q-145 0 -207.5 -136t-62.5 -433z" />
<glyph unicode="1" d="M184 1049v170q225 115 412 184h170v-1403h-186v1233q-185 -67 -396 -184z" />
<glyph unicode="2" d="M117 0v168q236 197 397 356q152 147 211 239.5t59 225.5q0 281 -344 281q-137 0 -288 -25v168q188 18 288 19q274 0 406 -109q135 -111 135 -322q0 -156 -67.5 -274.5t-221.5 -263.5l-325 -293v-8h632v-162h-882z" />
<glyph unicode="3" d="M154 -10v164q166 -25 317 -25q166 0 252 58.5t86 193.5q0 145 -87 197.5t-243 52.5h-256v145h238q127 0 211 58.5t84 191.5q0 248 -301 248q-109 0 -277 -27v166q170 18 291 19q217 0 330 -78q145 -102 145 -307q0 -223 -192 -320v-8q254 -78 254 -346q0 -221 -166 -326 q-121 -76 -353 -76q-140 1 -333 19z" />
<glyph unicode="4" d="M86 334v164q270 473 643 934h193v-943h165v-155h-165v-334h-189v334h-647zM268 489h465v691h-6q-231 -299 -459 -684v-7z" />
<glyph unicode="5" d="M170 -10v164q166 -25 319 -25q166 0 252 58.5t86 193.5q0 115 -61 168q-47 43 -143 67q-211 55 -418 70v717h751v-164h-581v-408q209 -25 352 -67q152 -43 223.5 -132t71.5 -249q0 -231 -164 -336q-121 -76 -352 -76q-143 1 -336 19z" />
<glyph unicode="6" d="M109 668q0 473 231 657q137 106 356 107q96 0 289 -21v-164q-147 27 -264 27q-233 0 -334 -166q-74 -121 -84 -332q236 74 373 74q178 0 282.5 -106.5t104.5 -327.5q0 -203 -121 -324q-117 -121 -344 -121q-221 0 -340 121q-149 152 -149 576zM299 631q0 -94 5 -159.5 t23.5 -138.5t49.5 -117t85 -72.5t130 -28.5q279 0 278 297q0 285 -249 284q-129 1 -322 -65z" />
<glyph unicode="7" d="M113 1231v172h909v-184l-590 -1219h-217l619 1221v10h-721z" />
<glyph unicode="8" d="M88 354q0 147 71.5 226t202.5 131v4q-104 51 -162.5 128t-58.5 210q0 219 152 313q100 66 276 66q182 0 283 -64q143 -92 143 -305q0 -127 -58 -199.5t-167 -124.5v-4q133 -55 205 -134t72 -228q0 -213 -156 -320q-121 -82 -321.5 -82t-319.5 74q-162 94 -162 309z M264 365q0 -119 75 -184.5t228 -65.5q297 0 297 256q0 63 -24.5 110t-76.5 79t-96 49.5t-122 39.5q-68 -25 -109 -44t-85 -52t-65.5 -79t-21.5 -109zM326 1057q0 -106 67.5 -162.5t194.5 -99.5q113 41 174 100t61 166q0 236 -254 235q-127 0 -185 -58t-58 -181z" />
<glyph unicode="9" d="M84 985q0 203 119 326q121 121 344 121q217 0 342 -121q150 -158 149 -578q0 -473 -233 -655q-133 -106 -354 -107q-131 0 -289 21v162q160 -25 264 -25q233 0 332 166q76 125 86 332q-240 -74 -373 -74q-180 0 -283.5 105.5t-103.5 326.5zM276 991q0 -287 248 -286 q127 0 322 67q0 92 -5 158.5t-22.5 138.5t-48.5 117t-85 73.5t-130 28.5q-279 0 -279 -297z" />
<glyph unicode=":" horiz-adv-x="567" d="M178 0v227h211v-227h-211zM178 805v227h211v-227h-211z" />
<glyph unicode=";" horiz-adv-x="567" d="M6 -379q141 360 209 612h199q-86 -276 -242 -612h-166zM178 805v227h211v-227h-211z" />
<glyph unicode="&#x3c;" d="M96 451v165l942 433v-185l-759 -329l759 -332v-185z" />
<glyph unicode="=" d="M104 248v168h928v-144v-24h-928zM104 651v168h928v-168h-928z" />
<glyph unicode="&#x3e;" d="M96 18v185l762 329l-762 332v185l942 -433v-165z" />
<glyph unicode="?" horiz-adv-x="907" d="M104 1319v162q143 16 234 16q231 0 352 -82q131 -94 131 -295q0 -90 -20.5 -156.5t-77.5 -132t-115.5 -112.5t-177.5 -133l-6 -174h-160l-4 237q219 147 295 232.5t76 212.5q0 129 -69.5 187t-227.5 58q-111 0 -230 -20zM240 0v223h211v-223h-211z" />
<glyph unicode="@" horiz-adv-x="2007" d="M96 604q0 522 283 742q229 178 625 178q412 0 641 -193q264 -221 264 -694q0 -283 -118 -422t-316 -139q-113 0 -211 30l-7 48q-213 -74 -325 -74q-170 0 -270 100q-119 121 -119 391q0 274 159 402q115 90 308 90q137 0 268 -57l4 30h139v-817q33 -8 72 -8 q250 0 250 410q0 393 -180.5 580.5t-556.5 187.5q-385 0 -565.5 -187.5t-180.5 -591.5q0 -416 179 -628.5t575 -212.5q221 0 577 86v-148q-365 -86 -587 -86q-485 0 -696.5 252t-211.5 731zM731 573q0 -340 250 -340q94 0 258 60v581q-98 41 -201 41q-307 0 -307 -342z" />
<glyph unicode="A" horiz-adv-x="1345" d="M35 0l520 1403h236l520 -1403h-207l-137 379h-596l-140 -379h-196zM422 537h489l-239 671h-6z" />
<glyph unicode="B" horiz-adv-x="1376" d="M227 0v1403h410q162 0 258 -18.5t170 -77.5q115 -92 115 -275q0 -215 -185 -311v-8q242 -76 242 -336q0 -166 -107 -264q-125 -113 -454 -113h-449zM418 774h239q176 0 254 59.5t78 180.5q0 129 -81 182t-263 53h-227v-475zM420 152h272q190 0 270 56t80 183 q0 125 -81.5 179.5t-268.5 54.5h-272v-473z" />
<glyph unicode="C" horiz-adv-x="1255" d="M96 700q0 420 246 607q166 125 463 125q115 0 313 -19v-174q-168 20 -307 21q-276 0 -396 -143.5t-120 -418.5q0 -264 110.5 -410.5t327.5 -146.5q143 0 410 78v-168q-291 -80 -459 -80q-246 0 -403 158q-185 186 -185 571z" />
<glyph unicode="D" horiz-adv-x="1515" d="M227 0v1403h508q303 0 473 -139q211 -170 211 -562q0 -395 -209 -563q-170 -139 -479 -139h-504zM420 162h313q252 0 369 131t117 407q0 266 -121 403.5t-359 137.5h-319v-1079z" />
<glyph unicode="E" horiz-adv-x="1247" d="M227 0v1403h840v-166h-647v-438h592v-158h-592v-475h680v-166h-873z" />
<glyph unicode="F" horiz-adv-x="1226" d="M227 0v1403h873v-166h-680v-502h592v-157h-592v-578h-193z" />
<glyph unicode="G" horiz-adv-x="1374" d="M96 700q0 420 246 607q166 125 475 125q84 0 361 -19v-174q-180 20 -355 21q-276 0 -402 -135.5t-126 -428.5q0 -270 108.5 -415.5t325.5 -145.5q133 0 322 53v398h-359v153h527v-676q-348 -92 -521 -92q-266 0 -422 158q-180 182 -180 571z" />
<glyph unicode="H" horiz-adv-x="1538" d="M227 0v1403h193v-598h698v598h193v-1403h-193v639h-698v-639h-193z" />
<glyph unicode="I" horiz-adv-x="647" d="M227 0v1403h193v-1403h-193z" />
<glyph unicode="J" horiz-adv-x="874" d="M41 -14v161q111 -12 172 -12q145 0 198.5 68.5t53.5 245.5v954h192v-961q0 -125 -19.5 -215t-84.5 -157q-92 -98 -291 -99q-106 1 -221 15z" />
<glyph unicode="K" horiz-adv-x="1384" d="M227 0v1403h193v-690l622 690h246l-569 -619l629 -784h-240l-524 647l-164 -178v-469h-193z" />
<glyph unicode="L" horiz-adv-x="1167" d="M227 0v1403h193v-1233h706v-170h-899z" />
<glyph unicode="M" horiz-adv-x="1878" d="M227 0v1403h254l459 -1192h6l453 1192h252v-1403h-191v1108h-6l-424 -1108h-203l-426 1108h-4v-1108h-170z" />
<glyph unicode="N" horiz-adv-x="1538" d="M227 0v1403h217l682 -1092h7v1092h178v-1403h-203l-698 1102h-7v-1102h-176z" />
<glyph unicode="O" horiz-adv-x="1501" d="M96 700q0 414 201 586q166 145 455 146q285 0 450 -146q201 -178 201 -584q0 -412 -199 -585q-162 -145 -454 -146q-285 0 -453 146q-201 177 -201 583zM295 707q0 -567 455 -568q240 0 347 135.5t107 423.5q0 565 -452 566q-240 0 -348.5 -134t-108.5 -423z" />
<glyph unicode="P" horiz-adv-x="1349" d="M227 0v1403h451q150 0 252 -26.5t172 -98.5q117 -119 117 -346q0 -205 -107 -328q-74 -82 -180.5 -112.5t-267.5 -30.5h-244v-461h-193zM420 618h252q184 0 267 77t83 239q0 168 -88 239.5t-264 71.5h-250v-627z" />
<glyph unicode="Q" horiz-adv-x="1501" d="M96 700q0 414 201 586q166 145 455 146q285 0 450 -146q201 -178 201 -584q0 -412 -199 -585q-106 -96 -276 -127l274 -369h-221l-236 350h-26q-264 6 -422 146q-201 177 -201 583zM295 707q0 -567 455 -568q240 0 347 135.5t107 423.5q0 565 -452 566 q-240 0 -348.5 -134t-108.5 -423z" />
<glyph unicode="R" horiz-adv-x="1357" d="M227 0v1403h430q305 0 428 -115q117 -111 117 -317q0 -190 -110 -299q-72 -74 -183 -103l332 -569h-221l-313 543q-25 -2 -72 -2h-215v-541h-193zM420 694h233q188 0 269.5 67.5t81.5 207.5q0 147 -87.5 211.5t-263.5 64.5h-233v-551z" />
<glyph unicode="S" horiz-adv-x="1187" d="M143 1036q0 221 158 320q119 76 350 76q135 0 334 -23v-160q-215 23 -319 23q-156 0 -226 -31q-109 -53 -108 -190q0 -82 41 -131.5t125 -77.5l227 -68q164 -45 246 -136t82 -257q0 -100 -41 -190.5t-125 -141.5q-127 -78 -377 -78q-195 0 -365 21v168q215 -23 349 -23 q172 0 251 35q119 49 119 199q0 166 -178 221l-118 37l-113 35q-154 45 -233 131.5t-79 240.5z" />
<glyph unicode="T" horiz-adv-x="1239" d="M41 1237v166h1157v-166h-481v-1237h-195v1237h-481z" />
<glyph unicode="U" horiz-adv-x="1482" d="M199 580v823h192v-848q0 -117 15.5 -187.5t60.5 -127.5q84 -102 278 -103q193 0 277 105q45 53 60.5 123.5t15.5 185.5v852h186v-823q0 -186 -24.5 -291t-98.5 -178q-137 -139 -420 -140q-285 0 -419 140q-74 74 -98.5 178.5t-24.5 290.5z" />
<glyph unicode="V" horiz-adv-x="1308" d="M35 1403h207l411 -1186h9l413 1186h199l-504 -1403h-233z" />
<glyph unicode="W" horiz-adv-x="2027" d="M55 1403h203l322 -1157h6l315 1157h229l320 -1157h8l320 1157h192l-401 -1403h-230l-325 1147h-6l-320 -1147h-227z" />
<glyph unicode="X" horiz-adv-x="1380" d="M25 0l534 725l-491 678h237l387 -543h4l385 543h230l-494 -670l539 -733h-242l-430 600h-4l-426 -600h-229z" />
<glyph unicode="Y" horiz-adv-x="1370" d="M20 1403h240l428 -598h6l422 598h234l-570 -774v-629h-194v627z" />
<glyph unicode="Z" horiz-adv-x="1341" d="M137 0v166l801 1063v10h-743v164h993v-164l-801 -1065v-8h856v-166h-1106z" />
<glyph unicode="[" horiz-adv-x="659" d="M190 -442v1919h404v-131h-244v-1657h244v-131h-404z" />
<glyph unicode="\" horiz-adv-x="567" d="M-12 1403h168l424 -1403h-166z" />
<glyph unicode="]" horiz-adv-x="659" d="M63 -311h244v1657h-244v131h404v-1919h-404v131z" />
<glyph unicode="^" d="M152 586l337 725h158l336 -725h-172l-244 536l-241 -536h-174z" />
<glyph unicode="_" d="M31 -238h1075v-141h-1075v141z" />
<glyph unicode="`" horiz-adv-x="1075" d="M322 1470h196q102 -158 234 -331h-183q-104 126 -247 331z" />
<glyph unicode="&#x300;" horiz-adv-x="1075" d="M322 1470h196q102 -158 234 -331h-183q-104 126 -247 331z" />
<glyph unicode="&#x2cb;" horiz-adv-x="1075" d="M322 1470h196q102 -158 234 -331h-183q-104 126 -247 331z" />
<glyph unicode="a" horiz-adv-x="1181" d="M131 295q0 193 148 270q90 47 268 47q113 0 278 -14v45q0 154 -70.5 212t-248.5 58q-125 0 -256 -16v147q170 18 287 19q262 0 368 -102q61 -57 82 -137.5t21 -205.5v-618h-156l-4 53q-227 -72 -326 -80q-25 -2 -51 -2q-154 0 -242 82q-98 90 -98 242zM309 297 q0 -82 56.5 -134t152.5 -52q106 0 307 65v291q-147 14 -264 14q-135 0 -193.5 -46t-58.5 -138z" />
<glyph unicode="b" horiz-adv-x="1222" d="M193 0v1470h182v-483q219 76 340 76q178 0 289 -111q133 -135 133 -434q0 -307 -179 -448q-125 -98 -329 -99q-160 0 -299 64l-6 -35h-131zM375 168q113 -51 229 -51q344 0 344 397q0 201 -75.5 297t-208.5 96q-109 0 -289 -67v-672z" />
<glyph unicode="c" horiz-adv-x="966" d="M84 516q0 313 178 451q125 96 346 96q104 0 246 -16v-154q-119 16 -233 16q-184 0 -266.5 -96t-82.5 -299q0 -184 74 -286.5t223 -102.5q98 0 301 59v-149q-223 -63 -352 -64q-188 0 -299 117q-135 141 -135 428z" />
<glyph unicode="d" horiz-adv-x="1220" d="M84 516q0 305 176 447q127 100 332 100q115 0 254 -45v452h182v-1470h-154l-6 53q-242 -82 -364 -82q-178 0 -289 111q-131 133 -131 434zM272 520q0 -393 283 -393q111 0 291 68v671q-104 49 -228 49q-346 0 -346 -395z" />
<glyph unicode="e" horiz-adv-x="1105" d="M84 518q0 295 154 436q125 109 325 109q199 0 314 -105q84 -74 110.5 -184t26.5 -297h-744q8 -356 316 -356q131 0 389 61v-145q-266 -66 -430 -66q-211 0 -326 117q-135 141 -135 430zM270 608h559q-4 166 -68.5 245t-209.5 79q-143 0 -207 -83t-74 -241z" />
<glyph unicode="f" horiz-adv-x="686" d="M20 887v147h173q0 121 19 209t85 156q98 98 301 98q72 0 186 -12v-156q-92 14 -161 14q-145 0 -195.5 -68.5t-52.5 -240.5h305v-147h-305v-887h-182v887h-173z" />
<glyph unicode="g" horiz-adv-x="1161" d="M84 547q0 289 166 422q121 94 313 94q133 0 281 -62l6 33h133v-975q0 -240 -109 -348q-115 -119 -413 -119q-129 0 -301 15v153q131 -16 272 -16q223 0 295 63q74 66 74 250v49q-199 -72 -320 -71q-168 0 -270 104q-127 129 -127 408zM272 551q0 -360 260 -361 q102 0 269 62v616q-111 47 -211 47q-160 0 -239 -88t-79 -276z" />
<glyph unicode="h" horiz-adv-x="1255" d="M193 0v1470h182v-483q223 76 342 76q190 0 289 -115q78 -96 77 -286v-662h-182v659q0 248 -242 248q-104 0 -284 -67v-840h-182z" />
<glyph unicode="i" horiz-adv-x="565" d="M182 1278v192h203v-192h-203zM193 0v1034h182v-1034h-8h-174z" />
<glyph unicode="j" horiz-adv-x="565" d="M-178 -242q86 -10 149 -10q133 2 177.5 77t44.5 228v981h182v-971q0 -127 -20.5 -216t-82.5 -154q-94 -100 -282 -101q-61 0 -168 13v153zM182 1278v192h203v-192h-203z" />
<glyph unicode="k" horiz-adv-x="1081" d="M193 0v1470h182v-874l393 438h229l-413 -448l454 -586h-227l-360 461l-76 -86v-375h-182z" />
<glyph unicode="l" horiz-adv-x="565" d="M193 0v1470h182v-1470h-182z" />
<glyph unicode="m" horiz-adv-x="1964" d="M193 0v1034h153l6 -55q240 84 365 84q184 0 276 -105q287 104 432 105q188 0 289 -115q78 -92 78 -286v-662h-180v659q0 248 -244 248q-104 0 -309 -76q25 -61 24 -169v-662h-182v659q0 248 -242 248q-104 0 -284 -67v-840h-182z" />
<glyph unicode="n" horiz-adv-x="1280" d="M193 0v1034h153l6 -55q252 84 381 84q197 0 297 -115q78 -92 78 -286v-662h-182v659q0 248 -246 248q-119 0 -305 -69v-838h-182z" />
<glyph unicode="o" horiz-adv-x="1169" d="M84 516q0 311 152 438q129 109 348 109t348 -109q154 -129 153 -436q0 -309 -151 -438q-129 -109 -348 -109t-348 109q-154 127 -154 436zM272 520q0 -205 76 -304t238 -99q168 0 239.5 94t71.5 303q0 203 -76 302t-237 99q-168 0 -240 -93t-72 -302z" />
<glyph unicode="p" horiz-adv-x="1222" d="M193 -379v1413h153l6 -55q244 84 363 84q178 0 289 -111q133 -135 133 -434q0 -307 -179 -448q-125 -98 -329 -99q-123 0 -254 45v-395h-182zM375 168q113 -51 229 -51q344 0 344 397q0 201 -75.5 297t-208.5 96q-106 0 -289 -69v-670z" />
<glyph unicode="q" horiz-adv-x="1204" d="M84 516q0 305 176 447q127 100 332 100q152 0 299 -64l6 35h131v-1413h-182v426q-219 -76 -342 -76q-178 0 -289 111q-131 133 -131 434zM272 520q0 -393 283 -393q106 0 291 66v673q-111 49 -228 49q-346 0 -346 -395z" />
<glyph unicode="r" horiz-adv-x="790" d="M193 0v1034h153l6 -63l138 51q40 14 103.5 27.5t125.5 13.5h20v-162h-43q-115 0 -321 -72v-829h-182z" />
<glyph unicode="s" horiz-adv-x="940" d="M111 760q0 174 127 248q100 55 282 55q111 0 268 -16v-146q-135 18 -256 19q-113 0 -172 -23q-78 -31 -77 -125q0 -96 120 -137l84 -25l86 -24q137 -35 203 -103.5t66 -197.5q0 -180 -133 -256q-98 -57 -301 -58q-125 0 -295 17v149q180 -18 280 -18q131 0 193 24 q84 35 84 133q0 57 -32 92t-97 58q-25 8 -179 47q-129 35 -190 100.5t-61 186.5z" />
<glyph unicode="t" horiz-adv-x="761" d="M20 887v147h173l22 314h160v-314h307v-147h-307v-441q0 -135 16 -202q31 -121 160 -121q37 0 149 20v-143q-143 -29 -196 -29q-213 0 -275 172q-37 104 -36 281v463h-173z" />
<glyph unicode="u" horiz-adv-x="1255" d="M172 373v661h182v-661q0 -131 61.5 -188.5t178.5 -57.5q102 0 289 66v841h182v-1034h-156l-8 51q-240 -80 -362 -80q-193 0 -287 115q-80 97 -80 287z" />
<glyph unicode="v" horiz-adv-x="1046" d="M18 1034h197l311 -850h6l310 850h188l-397 -1034h-217z" />
<glyph unicode="w" horiz-adv-x="1703" d="M53 1034h195l235 -823h4l263 823h211l266 -823h6l229 823h187l-314 -1034h-211l-272 803h-4l-264 -803h-213z" />
<glyph unicode="x" horiz-adv-x="1087" d="M20 0l400 535l-371 499h223l277 -379h6l274 379h205l-370 -495l403 -539h-221l-309 418h-7l-307 -418h-203z" />
<glyph unicode="y" horiz-adv-x="1050" d="M18 1034h201l334 -825h6l287 825h186l-420 -1136q-57 -162 -148 -234t-241 -72q-61 0 -160 13v153q92 -10 144 -10q88 0 139 43t86 141l25 68z" />
<glyph unicode="z" horiz-adv-x="1048" d="M96 0v152l580 722v9h-537v151h781v-151l-580 -725v-6h623v-152h-867z" />
<glyph unicode="{" horiz-adv-x="776" d="M51 451v133h78q166 0 166 196v398q0 152 66.5 225.5t218.5 73.5q57 0 131 -7v-137q-43 8 -105 8q-86 0 -118.5 -43t-32.5 -151v-391q0 -90 -33 -144.5t-100 -93.5q70 -39 101.5 -93t31.5 -146v-392q0 -106 32.5 -149t118.5 -43q61 0 105 8v-137q-65 -8 -131 -8 q-152 0 -218.5 72.5t-66.5 224.5v399q0 197 -166 197h-78z" />
<glyph unicode="|" horiz-adv-x="567" d="M203 -379v1856h157v-1856h-157z" />
<glyph unicode="}" horiz-adv-x="776" d="M51 -297q47 -8 103 -8q88 0 120.5 42t32.5 150v392q0 92 33 146t102 93q-70 39 -102.5 93.5t-32.5 144.5v391q0 109 -31.5 151.5t-121.5 42.5q-55 0 -103 -8v137q74 6 133 7q150 0 216.5 -74t66.5 -225v-398q0 -197 168 -196h76v-133h-76q-168 0 -168 -197v-399 q0 -152 -66.5 -224.5t-216.5 -72.5q-68 0 -133 8v137z" />
<glyph unicode="~" d="M80 475q121 209 282 209q88 0 207 -57q6 -2 40 -20.5t45.5 -23.5l38 -16.5t48 -14.5t43.5 -3q92 0 164 123l109 -84q-125 -209 -283 -209q-96 0 -211 59l-41 21l-44 21q-15 7 -38.5 16.5t-46 13.5t-45.5 4q-90 0 -162 -123z" />
<glyph unicode="&#xa1;" horiz-adv-x="546" d="M168 809v223h27h184v-223h-211zM176 -438l17 1059h161l19 -1059h-197z" />
<glyph unicode="&#xa2;" d="M156 516q0 313 176 451q98 76 262 90v233h145v-229q127 -2 224 -14v-154q-111 14 -224 14v-776q96 10 242 53v-149q-164 -45 -242 -51v-240h-145v229q-190 0 -303 115q-135 141 -135 428zM342 514q0 -344 252 -383v766q-133 -25 -192.5 -117t-59.5 -266z" />
<glyph unicode="&#xa3;" d="M117 0v166q143 0 216 62.5t73 170.5q0 72 -60 250h-229v142h182q-41 123 -41 215q0 190 117 308t344 118q104 0 289 -19v-164q-133 20 -256 21q-137 0 -219 -71t-82 -218q0 -86 36 -190h469v-142h-417q55 -162 55 -239q0 -150 -139 -240v-4h579v-166h-917z" />
<glyph unicode="&#xa4;" d="M92 164l154 155q-70 94 -70 218q0 115 64 211l-148 151l115 119l151 -156q94 66 207 66q115 0 209 -66l156 156l114 -119l-151 -154q66 -100 65 -208q0 -121 -71 -215l157 -158l-114 -121l-162 164q-90 -61 -202.5 -61.5t-200.5 59.5l-158 -162zM322 537 q0 -102 72.5 -174t173 -72t173 72.5t72.5 173t-72.5 173t-173 72.5t-173 -72.5t-72.5 -172.5z" />
<glyph unicode="&#xa5;" d="M27 1403h211l331 -572h4l328 572h211l-383 -612h324v-142h-391v-221h391v-143h-391v-285h-189v285h-383v143h383v221h-383v142h313z" />
<glyph unicode="&#xa6;" horiz-adv-x="567" d="M203 -379v776h157v-776h-32h-125zM203 702v775h157v-775h-157z" />
<glyph unicode="&#xa7;" horiz-adv-x="1214" d="M115 745q0 334 123 498q139 188 456 189q117 0 320 -19v-143q-176 18 -309 18q-231 0 -330 -139q-57 -80 -76 -217q184 -14 363 -49q244 -47 341 -185.5t97 -418.5q0 -336 -123 -498q-139 -188 -457 -189q-119 0 -317 19v143q147 -18 307 -18q233 0 328 135q61 90 75 217 q-248 29 -362 51q-236 47 -336 182t-100 424zM291 745q0 -133 18.5 -214.5t68.5 -134t117.5 -79t182.5 -47.5q135 -27 246 -34q2 14 2 45q0 174 -40 268t-118 136t-231 69q-127 23 -246 34v-43z" />
<glyph unicode="&#xa8;" horiz-adv-x="1075" d="M272 1278v192h179v-192h-179zM623 1278v192h180v-192h-180z" />
<glyph unicode="&#x308;" horiz-adv-x="1075" d="M272 1278v192h179v-192h-179zM623 1278v192h180v-192h-180z" />
<glyph unicode="&#xa9;" horiz-adv-x="1546" d="M96 700q0 410 207 586q174 145 471 145.5t467 -145.5q207 -178 207 -584q0 -414 -207 -585q-164 -145 -469 -146q-297 0 -467 146q-209 177 -209 583zM221 709q0 -319 137.5 -473t413.5 -154q287 0 419 143.5t132 468.5q0 319 -137 473t-412 154q-287 0 -420 -143 t-133 -469zM403 705q0 252 148 368q96 78 289 78q47 0 202 -12v-142q-119 14 -198 15q-268 0 -269 -310q0 -137 57.5 -220t172.5 -83q88 0 254 52v-136q-199 -53 -291 -53q-160 0 -254 96q-111 114 -111 347z" />
<glyph unicode="&#xaa;" horiz-adv-x="782" d="M78 709q0 129 98 178q63 33 178 33q59 0 170 -9v25q0 86 -45 118.5t-153 32.5q-74 0 -170 -10v115q104 12 200 12q174 0 252 -65q43 -37 56.5 -89.5t13.5 -134.5v-401h-131l-2 33q-154 -51 -240 -51q-104 0 -160 53q-67 62 -67 160zM119 197v120h559v-120h-559zM227 713 q0 -49 31 -78t86 -29q70 0 180 37v166q-66 8 -151 8q-146 0 -146 -104z" />
<glyph unicode="&#xab;" horiz-adv-x="970" d="M47 518q104 174 295 424h182q-154 -219 -268 -424q113 -203 268 -426h-182q-197 264 -295 426zM457 518q104 174 295 424h182q-154 -219 -268 -424q113 -203 268 -426h-182q-197 264 -295 426z" />
<glyph unicode="&#xac;" d="M80 662v155h975v-575h-158v420h-817z" />
<glyph unicode="&#xad;" horiz-adv-x="567" d="M35 434v166h495v-166h-495z" />
<glyph unicode="&#xae;" horiz-adv-x="1546" d="M96 700q0 410 207 586q174 145 471 145.5t467 -145.5q207 -178 207 -584q0 -414 -207 -585q-164 -145 -469 -146q-297 0 -467 146q-209 177 -209 583zM221 709q0 -319 137.5 -473t413.5 -154q289 0 420 141.5t131 470.5q0 319 -137 473t-412 154q-287 0 -420 -143 t-133 -469zM485 285v841h287q190 0 266 -67q76 -70 76 -201q0 -115 -70 -180q-29 -35 -94 -57l170 -336h-178l-151 311h-35h-109v-311h-162zM653 717h115q94 0 133 34.5t39 108.5q0 78 -43 112t-131 34h-113v-289z" />
<glyph unicode="&#xaf;" horiz-adv-x="1075" d="M307 1292v144h461v-144h-461z" />
<glyph unicode="&#x304;" horiz-adv-x="1075" d="M307 1292v144h461v-144h-461z" />
<glyph unicode="&#x2c9;" horiz-adv-x="1075" d="M307 1292v144h461v-144h-461z" />
<glyph unicode="&#xb0;" horiz-adv-x="952" d="M211 1051q0 113 77 189.5t185 76.5q113 0 190.5 -78t77.5 -188q0 -109 -77.5 -187t-190.5 -78q-109 0 -185.5 78t-76.5 187zM336 1051q0 -61 38 -109.5t99.5 -48.5t100 48t38.5 110q0 63 -38.5 110t-100 47t-99.5 -47t-38 -110z" />
<glyph unicode="&#xb1;" d="M84 39v162h967v-162h-967zM88 584v161h395v277h170v-277h396v-161h-396v-273h-170v273h-395z" />
<glyph unicode="&#xb2;" horiz-adv-x="716" d="M53 514v131q176 145 254 221q96 88 133 145.5t37 137.5q0 168 -205 168q-88 0 -196 -19v134q115 12 200 12q186 0 275 -70q90 -72 90 -211q0 -102 -45 -178t-137 -162q-176 -160 -197 -176v-4h393v-129h-602z" />
<glyph unicode="&#xb3;" horiz-adv-x="716" d="M74 510v129q156 -20 217 -21q100 0 150.5 35t50.5 117t-50.5 112.5t-140.5 30.5h-182v117h166q174 0 174 145.5t-183 145.5q-68 0 -186 -21v132q104 12 205 12q147 0 221 -49q100 -70 100 -203q0 -135 -120 -205v-4q160 -55 159 -223q0 -147 -110 -215q-82 -49 -236 -49 q-133 0 -235 14z" />
<glyph unicode="&#xb4;" horiz-adv-x="1075" d="M322 1139q104 131 233 331h197q-133 -195 -246 -331h-184z" />
<glyph unicode="&#x301;" horiz-adv-x="1075" d="M322 1139q104 131 233 331h197q-133 -195 -246 -331h-184z" />
<glyph unicode="&#x2ca;" horiz-adv-x="1075" d="M322 1139q104 131 233 331h197q-133 -195 -246 -331h-184z" />
<glyph unicode="&#xb5;" horiz-adv-x="1255" d="M172 -379v1413h182v-661q0 -131 61.5 -188.5t178.5 -57.5q102 0 289 66v841h182v-1034h-156l-8 51q-227 -80 -344 -80q-147 0 -219 80l22 -430h-188z" />
<glyph unicode="&#xb6;" horiz-adv-x="1626" d="M117 856q0 254 129 398.5t391 148.5h426v-1403h-154v389q-229 -78 -366 -78q-213 0 -319.5 147.5t-106.5 397.5zM836 -252q96 -10 161 -10q150 2 199 80t49 239v1346h154v-1337q0 -129 -19.5 -217.5t-81.5 -153.5q-98 -100 -286 -101q-70 0 -176 13v141z" />
<glyph unicode="&#xb7;" horiz-adv-x="567" d="M178 403v230h211v-230h-211z" />
<glyph unicode="&#x2219;" horiz-adv-x="567" d="M178 403v230h211v-230h-211z" />
<glyph unicode="&#xb8;" horiz-adv-x="1075" d="M375 -293q57 -4 84 -4q88 0 88 78q0 68 -123 219v39h111q88 -102 125.5 -163.5t37.5 -127.5q0 -156 -200 -156q-45 0 -123 9v106z" />
<glyph unicode="&#x327;" horiz-adv-x="1075" d="M375 -293q57 -4 84 -4q88 0 88 78q0 68 -123 219v39h111q88 -102 125.5 -163.5t37.5 -127.5q0 -156 -200 -156q-45 0 -123 9v106z" />
<glyph unicode="&#xb9;" horiz-adv-x="716" d="M92 1167v138q160 80 275 120h141v-911h-158v772q-115 -39 -258 -119z" />
<glyph unicode="&#xba;" horiz-adv-x="772" d="M47 850q0 197 103 285q86 70 237 69q150 0 236 -69q102 -90 102 -285q0 -197 -102 -285q-86 -70 -236 -69q-152 0 -237 69q-103 88 -103 285zM88 197v120h594v-120h-594zM207 852q0 -123 43 -182.5t137 -59.5q96 0 138 55.5t42 180.5q0 123 -43 182t-137 59 q-98 0 -139 -54t-41 -181z" />
<glyph unicode="&#xbb;" horiz-adv-x="972" d="M37 92q156 223 268 426q-115 205 -268 424h182q190 -250 295 -424q-98 -162 -295 -426h-182zM446 92q168 242 269 426q-102 184 -269 424h183q174 -225 295 -424q-115 -190 -295 -426h-183z" />
<glyph unicode="&#xbc;" horiz-adv-x="1712" d="M92 1145v137q160 80 275 121h141v-911h-158v772q-115 -39 -258 -119zM385 0l815 1403h180l-819 -1403h-176zM1024 205v127q174 307 414 598h157v-600h107v-125h-107v-205h-157v205h-414zM1169 330h269v399h-4q-135 -172 -265 -395v-4z" />
<glyph unicode="&#xbd;" horiz-adv-x="1800" d="M92 1145v137q160 80 275 121h141v-911h-158v772q-115 -39 -258 -119zM385 0l815 1403h180l-819 -1403h-176zM1141 0v131q176 145 254 221q96 88 133 145.5t37 137.5q0 168 -205 168q-90 0 -197 -19v134q115 12 201 12q186 0 274 -70q90 -72 91 -211q0 -102 -45.5 -178 t-137.5 -162q-176 -160 -196 -176v-4h393v-129h-602z" />
<glyph unicode="&#xbe;" horiz-adv-x="1748" d="M74 487v129q156 -20 217 -20q100 0 150.5 35t50.5 116.5t-50.5 112.5t-140.5 31h-182v117h166q174 0 174 145t-183 145q-68 0 -186 -20v131q104 12 205 12q147 0 221 -49q100 -70 100 -203q0 -135 -120 -204v-4q160 -55 159 -224q0 -147 -110 -215q-82 -49 -236 -49 q-133 0 -235 14zM420 0l815 1403h180l-819 -1403h-176zM1059 205v127q174 307 414 598h157v-600h107v-125h-107v-205h-157v205h-414zM1204 330h269v399h-5q-135 -172 -264 -395v-4z" />
<glyph unicode="&#xbf;" horiz-adv-x="907" d="M104 -88q0 90 20.5 156.5t78 132t116 112.5t177.5 133l6 175h160l6 -238q-221 -147 -297 -232t-76 -212q0 -129 69.5 -187.5t229.5 -58.5q109 0 227 20v-162q-143 -16 -231 -16q-233 0 -352 82q-134 94 -134 295zM475 809v223h213v-223h-213z" />
<glyph unicode="&#xc0;" horiz-adv-x="1345" d="M35 0l520 1403h236l520 -1403h-207l-137 379h-596l-140 -379h-196zM328 1798h196q102 -158 234 -332h-183q-104 127 -247 332zM422 537h489l-239 671h-6z" />
<glyph unicode="&#xc1;" horiz-adv-x="1345" d="M35 0l520 1403h236l520 -1403h-207l-137 379h-596l-140 -379h-196zM422 537h489l-239 671h-6zM580 1466q104 131 233 332h197q-133 -195 -246 -332h-184z" />
<glyph unicode="&#xc2;" horiz-adv-x="1345" d="M35 0l520 1403h236l520 -1403h-207l-137 379h-596l-140 -379h-196zM334 1466q119 141 244 332h190q106 -166 242 -332h-185l-153 215q-63 -96 -152 -215h-186zM422 537h489l-239 671h-6z" />
<glyph unicode="&#xc3;" horiz-adv-x="1345" d="M35 0l520 1403h236l520 -1403h-207l-137 379h-596l-140 -379h-196zM373 1462q0 123 29.5 190.5t113.5 67.5q51 0 148.5 -40t128.5 -40q57 0 57 119h121q0 -123 -30 -190.5t-114 -67.5q-49 0 -145 40t-129 40q-31 0 -44 -26.5t-13 -92.5h-123zM422 537h489l-239 671h-6z " />
<glyph unicode="&#xc4;" horiz-adv-x="1345" d="M35 0l520 1403h236l520 -1403h-207l-137 379h-596l-140 -379h-196zM381 1530v190h180v-190h-180zM422 537h489l-239 671h-6zM784 1530v190h181v-190h-181z" />
<glyph unicode="&#xc5;" horiz-adv-x="1345" d="M35 0l520 1403h236l520 -1403h-207l-137 379h-596l-140 -379h-196zM422 537h489l-239 671h-6zM481 1638q0 170 191 170q193 0 192 -168q0 -170 -192 -170q-191 0 -191 168zM584 1640q0 -86 88 -86t88 84q0 86 -88 86t-88 -84z" />
<glyph unicode="&#xc6;" horiz-adv-x="1988" d="M20 0l656 1403h1132v-166h-825l145 -500h625v-157h-584l119 -414h553v-166h-711l-143 520h-526l-236 -520h-205zM532 678h418l-149 557h-15z" />
<glyph unicode="&#xc7;" horiz-adv-x="1255" d="M96 700q0 420 246 607q166 125 463 125q115 0 313 -19v-174q-168 20 -307 21q-276 0 -396 -143.5t-120 -418.5q0 -264 110.5 -410.5t327.5 -146.5q143 0 410 78v-168q-242 -66 -393 -78q109 -131 108 -225q0 -156 -199 -156q-49 0 -122 9v106q53 -4 84 -4q88 0 88 78 q0 61 -105 194q-197 25 -323 154q-185 186 -185 571z" />
<glyph unicode="&#xc8;" horiz-adv-x="1247" d="M227 0v1403h840v-166h-647v-438h592v-158h-592v-475h680v-166h-873zM326 1798h196q102 -158 234 -332h-183q-104 127 -247 332z" />
<glyph unicode="&#xc9;" horiz-adv-x="1247" d="M227 0v1403h840v-166h-647v-438h592v-158h-592v-475h680v-166h-873zM541 1466q104 131 233 332h197q-133 -195 -246 -332h-184z" />
<glyph unicode="&#xca;" horiz-adv-x="1247" d="M227 0v1403h840v-166h-647v-438h592v-158h-592v-475h680v-166h-873zM311 1466q119 141 244 332h190q106 -166 242 -332h-184l-154 215q-63 -96 -151 -215h-187z" />
<glyph unicode="&#xcb;" horiz-adv-x="1247" d="M227 0v1403h840v-166h-647v-438h592v-158h-592v-475h680v-166h-873zM367 1530v190h180v-190h-180zM770 1530v190h180v-190h-180z" />
<glyph unicode="&#xcc;" horiz-adv-x="647" d="M-14 1798h196q102 -158 234 -332h-183q-104 127 -247 332zM227 0v1403h193v-1403h-193z" />
<glyph unicode="&#xcd;" horiz-adv-x="647" d="M227 0v1403h193v-1403h-193zM233 1466q104 131 234 332h197q-133 -195 -246 -332h-185z" />
<glyph unicode="&#xce;" horiz-adv-x="647" d="M-14 1466q119 141 243 332h191q106 -166 242 -332h-185l-153 215q-63 -96 -152 -215h-186zM227 0v1403h193v-1403h-193z" />
<glyph unicode="&#xcf;" horiz-adv-x="647" d="M33 1530v190h180v-190h-180zM227 0v1403h193v-1403h-193zM436 1530v190h180v-190h-180z" />
<glyph unicode="&#xd0;" horiz-adv-x="1515" d="M2 641v158h225v604h508q303 0 473 -139q211 -170 211 -562q0 -395 -209 -563q-170 -139 -479 -139h-504v641h-225zM420 162h313q252 0 369 131t117 407q0 266 -121 403.5t-359 137.5h-319v-442h409v-158h-409v-479z" />
<glyph unicode="&#xd1;" horiz-adv-x="1538" d="M227 0v1403h217l682 -1092h7v1092h178v-1403h-203l-698 1102h-7v-1102h-176zM483 1462q0 123 30 190.5t114 67.5q51 0 148 -40t128 -40q57 0 58 119h120q0 -123 -29.5 -190.5t-113.5 -67.5q-49 0 -145.5 40t-128.5 40q-31 0 -44.5 -26.5t-13.5 -92.5h-123z" />
<glyph unicode="&#xd2;" horiz-adv-x="1501" d="M96 700q0 414 201 586q166 145 455 146q285 0 450 -146q201 -178 201 -584q0 -412 -199 -585q-162 -145 -454 -146q-285 0 -453 146q-201 177 -201 583zM295 707q0 -567 455 -568q240 0 347 135.5t107 423.5q0 565 -452 566q-240 0 -348.5 -134t-108.5 -423zM418 1798 h196q102 -158 234 -332h-182q-105 127 -248 332z" />
<glyph unicode="&#xd3;" horiz-adv-x="1501" d="M96 700q0 414 201 586q166 145 455 146q285 0 450 -146q201 -178 201 -584q0 -412 -199 -585q-162 -145 -454 -146q-285 0 -453 146q-201 177 -201 583zM295 707q0 -567 455 -568q240 0 347 135.5t107 423.5q0 565 -452 566q-240 0 -348.5 -134t-108.5 -423zM653 1466 q104 131 234 332h196q-133 -195 -245 -332h-185z" />
<glyph unicode="&#xd4;" horiz-adv-x="1501" d="M96 700q0 414 201 586q166 145 455 146q285 0 450 -146q201 -178 201 -584q0 -412 -199 -585q-162 -145 -454 -146q-285 0 -453 146q-201 177 -201 583zM295 707q0 -567 455 -568q240 0 347 135.5t107 423.5q0 565 -452 566q-240 0 -348.5 -134t-108.5 -423zM424 1466 q119 141 244 332h190q106 -166 242 -332h-185l-153 215q-63 -96 -152 -215h-186z" />
<glyph unicode="&#xd5;" horiz-adv-x="1501" d="M96 700q0 414 201 586q166 145 455 146q285 0 450 -146q201 -178 201 -584q0 -412 -199 -585q-162 -145 -454 -146q-285 0 -453 146q-201 177 -201 583zM295 707q0 -567 455 -568q240 0 347 135.5t107 423.5q0 565 -452 566q-240 0 -348.5 -134t-108.5 -423zM451 1462 q0 123 29.5 190.5t113.5 67.5q51 0 148.5 -40t127.5 -40q57 0 58 119h121q0 -123 -30 -190.5t-114 -67.5q-49 0 -145 40t-129 40q-31 0 -44.5 -26.5t-13.5 -92.5h-122z" />
<glyph unicode="&#xd6;" horiz-adv-x="1501" d="M96 700q0 414 201 586q166 145 455 146q285 0 450 -146q201 -178 201 -584q0 -412 -199 -585q-162 -145 -454 -146q-285 0 -453 146q-201 177 -201 583zM295 707q0 -567 455 -568q240 0 347 135.5t107 423.5q0 565 -452 566q-240 0 -348.5 -134t-108.5 -423zM459 1530 v190h180v-190h-180zM862 1530v190h180v-190h-180z" />
<glyph unicode="&#xd7;" d="M92 164l361 366l-361 369l115 119l358 -367l365 367l114 -119l-362 -369l362 -366l-114 -121l-363 367l-360 -367z" />
<glyph unicode="&#xd8;" horiz-adv-x="1501" d="M82 -174l199 305q-184 178 -185 569q0 414 201 586q166 145 455 146q193 0 331 -76l144 221h190l-200 -305q186 -180 186 -570q0 -412 -199 -585q-162 -145 -454 -146q-195 0 -334 76l-146 -221h-188zM295 707q0 -264 102 -404l590 899q-96 61 -235 62 q-240 0 -348.5 -134t-108.5 -423zM508 199q96 -59 242 -60q240 0 347 135.5t107 423.5q0 264 -104 404z" />
<glyph unicode="&#xd9;" horiz-adv-x="1482" d="M199 580v823h192v-848q0 -117 15.5 -187.5t60.5 -127.5q84 -102 278 -103q193 0 277 105q45 53 60.5 123.5t15.5 185.5v852h186v-823q0 -186 -24.5 -291t-98.5 -178q-137 -139 -420 -140q-285 0 -419 140q-74 74 -98.5 178.5t-24.5 290.5zM401 1798h197 q102 -158 233 -332h-182q-105 127 -248 332z" />
<glyph unicode="&#xda;" horiz-adv-x="1482" d="M199 580v823h192v-848q0 -117 15.5 -187.5t60.5 -127.5q84 -102 278 -103q193 0 277 105q45 53 60.5 123.5t15.5 185.5v852h186v-823q0 -186 -24.5 -291t-98.5 -178q-137 -139 -420 -140q-285 0 -419 140q-74 74 -98.5 178.5t-24.5 290.5zM647 1466q104 131 234 332h196 q-133 -195 -246 -332h-184z" />
<glyph unicode="&#xdb;" horiz-adv-x="1482" d="M199 580v823h192v-848q0 -117 15.5 -187.5t60.5 -127.5q84 -102 278 -103q193 0 277 105q45 53 60.5 123.5t15.5 185.5v852h186v-823q0 -186 -24.5 -291t-98.5 -178q-137 -139 -420 -140q-285 0 -419 140q-74 74 -98.5 178.5t-24.5 290.5zM401 1466q119 141 244 332h191 q106 -166 241 -332h-184l-154 215q-63 -96 -151 -215h-187z" />
<glyph unicode="&#xdc;" horiz-adv-x="1482" d="M199 580v823h192v-848q0 -117 15.5 -187.5t60.5 -127.5q84 -102 278 -103q193 0 277 105q45 53 60.5 123.5t15.5 185.5v852h186v-823q0 -186 -24.5 -291t-98.5 -178q-137 -139 -420 -140q-285 0 -419 140q-74 74 -98.5 178.5t-24.5 290.5zM449 1530v190h180v-190h-180z M852 1530v190h180v-190h-180z" />
<glyph unicode="&#xdd;" horiz-adv-x="1370" d="M20 1403h240l428 -598h6l422 598h234l-570 -774v-629h-194v627zM610 1466q104 131 234 332h196q-133 -195 -245 -332h-185z" />
<glyph unicode="&#xde;" horiz-adv-x="1349" d="M227 0v1403h193v-119h258q152 0 253 -25.5t171 -97.5q117 -119 117 -348q0 -203 -107 -326q-72 -82 -178.5 -112.5t-269.5 -30.5h-244v-344h-193zM420 500h252q184 0 267 76.5t83 238.5q0 168 -88 240.5t-264 72.5h-250v-628z" />
<glyph unicode="&#xdf;" horiz-adv-x="1337" d="M193 0v1034q0 252 114 363q104 100 389 100q236 0 338 -70q104 -66 105 -227q0 -117 -54.5 -170t-148.5 -80q-152 -43 -174 -53q-78 -33 -78 -125q0 -100 121 -137l84 -25l86 -24q135 -35 201.5 -103.5t66.5 -197.5q0 -180 -135 -256q-98 -57 -299 -58q-123 0 -297 17 v149q184 -18 281 -18q131 0 194 24q82 35 82 133q0 57 -31.5 92t-97.5 58q-8 2 -176 47q-129 33 -191.5 99.5t-62.5 187.5q0 160 115 235q31 20 67.5 36t95 31t76.5 21q55 16 80 42t25 79q0 80 -63.5 109.5t-196.5 29.5q-201 0 -267.5 -66.5t-66.5 -242.5v-1034h-182z" />
<glyph unicode="&#xe0;" horiz-adv-x="1181" d="M131 295q0 193 148 270q90 47 268 47q113 0 278 -14v45q0 154 -70.5 212t-248.5 58q-125 0 -256 -16v147q170 18 287 19q262 0 368 -102q61 -57 82 -137.5t21 -205.5v-618h-156l-4 53q-227 -72 -326 -80q-25 -2 -51 -2q-154 0 -242 82q-98 90 -98 242zM246 1470h196 q102 -158 234 -331h-182q-105 126 -248 331zM309 297q0 -82 56.5 -134t152.5 -52q106 0 307 65v291q-147 14 -264 14q-135 0 -193.5 -46t-58.5 -138z" />
<glyph unicode="&#xe1;" horiz-adv-x="1181" d="M131 295q0 193 148 270q90 47 268 47q113 0 278 -14v45q0 154 -70.5 212t-248.5 58q-125 0 -256 -16v147q170 18 287 19q262 0 368 -102q61 -57 82 -137.5t21 -205.5v-618h-156l-4 53q-227 -72 -326 -80q-25 -2 -51 -2q-154 0 -242 82q-98 90 -98 242zM309 297 q0 -82 56.5 -134t152.5 -52q106 0 307 65v291q-147 14 -264 14q-135 0 -193.5 -46t-58.5 -138zM461 1139q104 131 233 331h197q-133 -195 -246 -331h-184z" />
<glyph unicode="&#xe2;" horiz-adv-x="1181" d="M131 295q0 193 148 270q90 47 268 47q113 0 278 -14v45q0 154 -70.5 212t-248.5 58q-125 0 -256 -16v147q170 18 287 19q262 0 368 -102q61 -57 82 -137.5t21 -205.5v-618h-156l-4 53q-227 -72 -326 -80q-25 -2 -51 -2q-154 0 -242 82q-98 90 -98 242zM252 1139 q119 141 244 331h190q106 -166 242 -331h-185q-49 63 -153 213q-86 -127 -152 -213h-186zM309 297q0 -82 56.5 -134t152.5 -52q106 0 307 65v291q-147 14 -264 14q-135 0 -193.5 -46t-58.5 -138z" />
<glyph unicode="&#xe3;" horiz-adv-x="1181" d="M131 295q0 193 148 270q90 47 268 47q113 0 278 -14v45q0 154 -70.5 212t-248.5 58q-125 0 -256 -16v147q170 18 287 19q262 0 368 -102q61 -57 82 -137.5t21 -205.5v-618h-156l-4 53q-227 -72 -326 -80q-25 -2 -51 -2q-154 0 -242 82q-98 90 -98 242zM291 1180 q0 123 29.5 190.5t113.5 67.5q51 0 148.5 -40t128.5 -40q57 0 57 119h121q0 -123 -30 -190.5t-114 -67.5q-49 0 -145 39.5t-129 39.5q-31 0 -44 -26.5t-13 -91.5h-123zM309 297q0 -82 56.5 -134t152.5 -52q106 0 307 65v291q-147 14 -264 14q-135 0 -193.5 -46t-58.5 -138z " />
<glyph unicode="&#xe4;" horiz-adv-x="1181" d="M131 295q0 193 148 270q90 47 268 47q113 0 278 -14v45q0 154 -70.5 212t-248.5 58q-125 0 -256 -16v147q170 18 287 19q262 0 368 -102q61 -57 82 -137.5t21 -205.5v-618h-156l-4 53q-227 -72 -326 -80q-25 -2 -51 -2q-154 0 -242 82q-98 90 -98 242zM309 297 q0 -82 56.5 -134t152.5 -52q106 0 307 65v291q-147 14 -264 14q-135 0 -193.5 -46t-58.5 -138zM326 1278v192h178v-192h-178zM676 1278v192h180v-192h-180z" />
<glyph unicode="&#xe5;" horiz-adv-x="1181" d="M131 295q0 193 148 270q90 47 268 47q113 0 278 -14v45q0 154 -70.5 212t-248.5 58q-125 0 -256 -16v147q170 18 287 19q262 0 368 -102q61 -57 82 -137.5t21 -205.5v-618h-156l-4 53q-227 -72 -326 -80q-25 -2 -51 -2q-154 0 -242 82q-98 90 -98 242zM309 297 q0 -82 56.5 -134t152.5 -52q106 0 307 65v291q-147 14 -264 14q-135 0 -193.5 -46t-58.5 -138zM399 1307q0 170 191 170q193 0 192 -168q0 -170 -192 -170q-191 0 -191 168zM502 1309q0 -86 88 -86t88 84q0 86 -88 86t-88 -84z" />
<glyph unicode="&#xe6;" horiz-adv-x="1841" d="M131 295q0 193 148 270q90 47 268 47q113 0 278 -14v45q0 154 -70.5 212t-248.5 58q-125 0 -256 -16v147q170 18 287 19q233 0 340 -88q43 -37 61 -80q31 49 70 76q119 92 290 92q199 0 314 -105q84 -74 110.5 -184t26.5 -297h-743q6 -356 315 -356q129 0 389 61v-145 q-270 -66 -430 -66q-209 0 -326 117q-324 -117 -483 -117q-154 0 -242 82q-98 90 -98 242zM309 297q0 -82 56.5 -134t152.5 -52q131 0 365 86q-53 104 -58 270q-147 14 -264 14q-135 0 -193.5 -46t-58.5 -138zM1006 608h559q-6 166 -70.5 245t-210.5 79q-141 0 -204.5 -83 t-73.5 -241z" />
<glyph unicode="&#xe7;" horiz-adv-x="966" d="M84 516q0 313 178 451q125 96 346 96q104 0 246 -16v-154q-119 16 -233 16q-184 0 -266.5 -96t-82.5 -299q0 -184 74 -286.5t223 -102.5q98 0 301 59v-149q-182 -53 -286 -60q109 -135 108 -227q0 -156 -198 -156q-49 0 -123 9v106q53 -4 84 -4q88 0 88 78q0 63 -105 196 q-139 25 -219 111q-135 141 -135 428z" />
<glyph unicode="&#xe8;" horiz-adv-x="1105" d="M84 518q0 295 154 436q125 109 325 109q199 0 314 -105q84 -74 110.5 -184t26.5 -297h-744q8 -356 316 -356q131 0 389 61v-145q-266 -66 -430 -66q-211 0 -326 117q-135 141 -135 430zM225 1470h197q102 -158 233 -331h-182q-105 126 -248 331zM270 608h559 q-4 166 -68.5 245t-209.5 79q-143 0 -207 -83t-74 -241z" />
<glyph unicode="&#xe9;" horiz-adv-x="1105" d="M84 518q0 295 154 436q125 109 325 109q199 0 314 -105q84 -74 110.5 -184t26.5 -297h-744q8 -356 316 -356q131 0 389 61v-145q-266 -66 -430 -66q-211 0 -326 117q-135 141 -135 430zM270 608h559q-4 166 -68.5 245t-209.5 79q-143 0 -207 -83t-74 -241zM459 1139 q104 131 233 331h197q-133 -195 -246 -331h-184z" />
<glyph unicode="&#xea;" horiz-adv-x="1105" d="M84 518q0 295 154 436q125 109 325 109q199 0 314 -105q84 -74 110.5 -184t26.5 -297h-744q8 -356 316 -356q131 0 389 61v-145q-266 -66 -430 -66q-211 0 -326 117q-135 141 -135 430zM225 1139q119 141 244 331h190q106 -166 242 -331h-184q-49 63 -154 213 q-86 -127 -151 -213h-187zM270 608h559q-4 166 -68.5 245t-209.5 79q-143 0 -207 -83t-74 -241z" />
<glyph unicode="&#xeb;" horiz-adv-x="1105" d="M84 518q0 295 154 436q125 109 325 109q199 0 314 -105q84 -74 110.5 -184t26.5 -297h-744q8 -356 316 -356q131 0 389 61v-145q-266 -66 -430 -66q-211 0 -326 117q-135 141 -135 430zM270 608h559q-4 166 -68.5 245t-209.5 79q-143 0 -207 -83t-74 -241zM299 1278v192 h178v-192h-178zM649 1278v192h180v-192h-180z" />
<glyph unicode="&#xec;" horiz-adv-x="565" d="M-63 1470h196q102 -158 234 -331h-183q-104 126 -247 331zM193 0v1034h182v-1034h-8h-174z" />
<glyph unicode="&#xed;" horiz-adv-x="565" d="M190 1139q104 131 234 331h197q-133 -195 -246 -331h-185zM193 0v1034h182v-1034h-8h-174z" />
<glyph unicode="&#xee;" horiz-adv-x="565" d="M-55 1139q119 141 243 331h191q106 -166 242 -331h-185q-49 63 -153 213q-86 -127 -152 -213h-186zM193 0v1034h182v-1034h-8h-174z" />
<glyph unicode="&#xef;" horiz-adv-x="565" d="M18 1278v192h179v-192h-179zM193 0v1034h182v-1034h-8h-174zM369 1278v192h180v-192h-180z" />
<glyph unicode="&#xf0;" horiz-adv-x="1169" d="M84 510q0 299 174 440q125 102 326 103q14 0 106 -11l-98 136l-291 -62v148l193 45l-115 161h227l86 -127l305 68v-147l-209 -50l68 -98q127 -180 178 -301t51 -303q0 -305 -151 -432q-129 -109 -348 -109t-348 109q-154 123 -154 430zM272 514q0 -201 76 -299t238 -98 q168 0 239.5 92t71.5 299q0 197 -106 366q-96 31 -181 31q-170 0 -254 -94t-84 -297z" />
<glyph unicode="&#xf1;" horiz-adv-x="1280" d="M193 0v1034h153l6 -55q252 84 381 84q197 0 297 -115q78 -92 78 -286v-662h-182v659q0 248 -246 248q-119 0 -305 -69v-838h-182zM340 1180q0 123 29.5 190.5t113.5 67.5q51 0 148.5 -40t128.5 -40q57 0 57 119h121q0 -123 -29.5 -190.5t-113.5 -67.5q-49 0 -145.5 39.5 t-129.5 39.5q-31 0 -44 -26.5t-13 -91.5h-123z" />
<glyph unicode="&#xf2;" horiz-adv-x="1169" d="M84 516q0 311 152 438q129 109 348 109t348 -109q154 -129 153 -436q0 -309 -151 -438q-129 -109 -348 -109t-348 109q-154 127 -154 436zM252 1470h197q102 -158 233 -331h-182q-105 126 -248 331zM272 520q0 -205 76 -304t238 -99q168 0 239.5 94t71.5 303 q0 203 -76 302t-237 99q-168 0 -240 -93t-72 -302z" />
<glyph unicode="&#xf3;" horiz-adv-x="1169" d="M84 516q0 311 152 438q129 109 348 109t348 -109q154 -129 153 -436q0 -309 -151 -438q-129 -109 -348 -109t-348 109q-154 127 -154 436zM272 520q0 -205 76 -304t238 -99q168 0 239.5 94t71.5 303q0 203 -76 302t-237 99q-168 0 -240 -93t-72 -302zM479 1139 q104 131 234 331h196q-133 -195 -245 -331h-185z" />
<glyph unicode="&#xf4;" horiz-adv-x="1169" d="M84 516q0 311 152 438q129 109 348 109t348 -109q154 -129 153 -436q0 -309 -151 -438q-129 -109 -348 -109t-348 109q-154 127 -154 436zM246 1139q119 141 243 331h191q106 -166 242 -331h-185q-49 63 -153 213q-86 -127 -152 -213h-186zM272 520q0 -205 76 -304 t238 -99q168 0 239.5 94t71.5 303q0 203 -76 302t-237 99q-168 0 -240 -93t-72 -302z" />
<glyph unicode="&#xf5;" horiz-adv-x="1169" d="M84 516q0 311 152 438q129 109 348 109t348 -109q154 -129 153 -436q0 -309 -151 -438q-129 -109 -348 -109t-348 109q-154 127 -154 436zM272 520q0 -205 76 -304t238 -99q168 0 239.5 94t71.5 303q0 203 -76 302t-237 99q-168 0 -240 -93t-72 -302zM285 1180 q0 123 29.5 190.5t113.5 67.5q51 0 148.5 -40t128.5 -40q57 0 57 119h121q0 -123 -30 -190.5t-114 -67.5q-51 0 -147 39.5t-127 39.5t-44 -26.5t-13 -91.5h-123z" />
<glyph unicode="&#xf6;" horiz-adv-x="1169" d="M84 516q0 311 152 438q129 109 348 109t348 -109q154 -129 153 -436q0 -309 -151 -438q-129 -109 -348 -109t-348 109q-154 127 -154 436zM272 520q0 -205 76 -304t238 -99q168 0 239.5 94t71.5 303q0 203 -76 302t-237 99q-168 0 -240 -93t-72 -302zM319 1278v192h179 v-192h-179zM670 1278v192h180v-192h-180z" />
<glyph unicode="&#xf7;" d="M80 449v153h977v-153h-977zM465 14v219h207v-196v-23h-207zM465 821v219h207v-219h-207z" />
<glyph unicode="&#xf8;" horiz-adv-x="1169" d="M72 -137l149 229q-137 129 -137 424q0 311 152 438q129 109 348 109q137 0 237 -49l105 160h174l-154 -234q139 -129 139 -422q0 -309 -151 -438q-129 -109 -348 -109q-135 0 -238 47l-102 -155h-174zM272 520q0 -170 62 -262l405 621q-61 37 -155 36q-168 0 -240 -93 t-72 -302zM430 154q57 -37 156 -37q168 0 239.5 94t71.5 303q0 170 -63 260z" />
<glyph unicode="&#xf9;" horiz-adv-x="1255" d="M172 373v661h182v-661q0 -131 61.5 -188.5t178.5 -57.5q102 0 289 66v841h182v-1034h-156l-8 51q-240 -80 -362 -80q-193 0 -287 115q-80 97 -80 287zM270 1470h197q102 -158 233 -331h-182q-105 126 -248 331z" />
<glyph unicode="&#xfa;" horiz-adv-x="1255" d="M172 373v661h182v-661q0 -131 61.5 -188.5t178.5 -57.5q102 0 289 66v841h182v-1034h-156l-8 51q-240 -80 -362 -80q-193 0 -287 115q-80 97 -80 287zM516 1139q104 131 234 331h196q-133 -195 -246 -331h-184z" />
<glyph unicode="&#xfb;" horiz-adv-x="1255" d="M172 373v661h182v-661q0 -131 61.5 -188.5t178.5 -57.5q102 0 289 66v841h182v-1034h-156l-8 51q-240 -80 -362 -80q-193 0 -287 115q-80 97 -80 287zM289 1139q119 141 243 331h191q106 -166 242 -331h-185q-49 63 -153 213q-86 -127 -152 -213h-186z" />
<glyph unicode="&#xfc;" horiz-adv-x="1255" d="M172 373v661h182v-661q0 -131 61.5 -188.5t178.5 -57.5q102 0 289 66v841h182v-1034h-156l-8 51q-240 -80 -362 -80q-193 0 -287 115q-80 97 -80 287zM362 1278v192h179v-192h-179zM713 1278v192h180v-192h-180z" />
<glyph unicode="&#xfd;" horiz-adv-x="1050" d="M18 1034h201l334 -825h6l287 825h186l-420 -1136q-57 -162 -148 -234t-241 -72q-61 0 -160 13v153q92 -10 144 -10q88 0 139 43t86 141l25 68zM442 1143q104 131 234 332h196q-133 -195 -245 -332h-185z" />
<glyph unicode="&#xfe;" horiz-adv-x="1222" d="M193 -379v1849h182v-483q219 76 340 76q178 0 289 -111q133 -135 133 -434q0 -307 -179 -448q-125 -98 -329 -99q-131 0 -254 45v-395h-182zM375 168q113 -51 229 -51q344 0 344 397q0 201 -75.5 297t-208.5 96q-106 0 -289 -69v-670z" />
<glyph unicode="&#xff;" horiz-adv-x="1050" d="M18 1034h201l334 -825h6l287 825h186l-420 -1136q-57 -162 -148 -234t-241 -72q-61 0 -160 13v153q92 -10 144 -10q88 0 139 43t86 141l25 68zM266 1278v192h178v-192h-178zM616 1278v192h181v-192h-181z" />
<glyph unicode="&#x152;" horiz-adv-x="2115" d="M96 700q0 395 209 564q172 139 479 139h1151v-166h-647v-438h592v-158h-592v-475h680v-166h-1188q-303 0 -473 137q-211 174 -211 563zM297 702q0 -266 121 -403t358 -137h320v1079h-314q-252 0 -368.5 -131.5t-116.5 -407.5z" />
<glyph unicode="&#x153;" horiz-adv-x="1929" d="M84 516q0 311 152 438q129 109 348 109q199 0 315 -92q55 -43 90 -107q35 61 92 109q121 90 291 90q199 0 314 -105q84 -74 110.5 -184t26.5 -297h-744q6 -356 316 -356q135 0 389 61v-145q-270 -66 -430 -66q-188 0 -297 101q-39 37 -70 90q-31 -53 -84 -96 q-121 -94 -317 -95q-219 0 -348 109q-154 127 -154 436zM272 520q0 -205 76 -304t238 -99q168 0 239.5 94t71.5 303q0 203 -76 302t-237 99q-168 0 -240 -93t-72 -302zM1079 608h559q-6 166 -70.5 245t-209.5 79q-141 0 -205 -83t-74 -241z" />
<glyph unicode="&#x178;" horiz-adv-x="1370" d="M20 1403h240l428 -598h6l422 598h234l-570 -774v-629h-194v627zM393 1530v190h180v-190h-180zM797 1530v190h180v-190h-180z" />
<glyph unicode="&#x2c6;" horiz-adv-x="1075" d="M199 1139q119 141 243 331h191q106 -166 241 -331h-184q-49 63 -153 213q-86 -127 -152 -213h-186z" />
<glyph unicode="&#x302;" horiz-adv-x="1075" d="M199 1139q119 141 243 331h191q106 -166 241 -331h-184q-49 63 -153 213q-86 -127 -152 -213h-186z" />
<glyph unicode="&#x2dc;" horiz-adv-x="1075" d="M238 1180q0 123 29.5 190.5t113.5 67.5q51 0 148.5 -40t127.5 -40q57 0 58 119h121q0 -123 -30 -190.5t-114 -67.5q-49 0 -145 39.5t-129 39.5q-31 0 -44.5 -26.5t-13.5 -91.5h-122z" />
<glyph unicode="&#x303;" horiz-adv-x="1075" d="M238 1180q0 123 29.5 190.5t113.5 67.5q51 0 148.5 -40t127.5 -40q57 0 58 119h121q0 -123 -30 -190.5t-114 -67.5q-49 0 -145 39.5t-129 39.5q-31 0 -44.5 -26.5t-13.5 -91.5h-122z" />
<glyph unicode="&#x2013;" d="M61 446v142h1014v-142h-1014z" />
<glyph unicode="&#x2014;" horiz-adv-x="2273" d="M92 446v142h2089v-142h-2089z" />
<glyph unicode="&#x2018;" horiz-adv-x="536" d="M84 920q80 254 213 550h168q-113 -287 -184 -550h-197z" />
<glyph unicode="&#x2019;" horiz-adv-x="536" d="M72 920q121 305 184 550h199q-76 -246 -215 -550h-168z" />
<glyph unicode="&#x201a;" horiz-adv-x="536" d="M25 -317q121 305 184 550h199q-76 -246 -215 -550h-168z" />
<glyph unicode="&#x201c;" horiz-adv-x="940" d="M84 920q80 254 213 550h168q-113 -287 -184 -550h-197zM485 920q80 254 213 550h168q-113 -287 -184 -550h-197z" />
<glyph unicode="&#x201d;" horiz-adv-x="940" d="M72 920q121 305 184 550h199q-76 -246 -215 -550h-168zM473 920q121 305 184 550h199q-76 -246 -215 -550h-168z" />
<glyph unicode="&#x201e;" horiz-adv-x="872" d="M8 -373q121 305 185 551h198q-76 -246 -215 -551h-168zM369 -373q121 305 184 551h199q-76 -246 -215 -551h-168z" />
<glyph unicode="&#x2022;" horiz-adv-x="702" d="M145 299v438h410v-438h-410z" />
<glyph unicode="&#x2026;" horiz-adv-x="2273" d="M225 0v227h211v-227h-211zM971 0v227h211v-227h-211zM1716 0v227h209v-227h-209z" />
<glyph unicode="&#x2039;" horiz-adv-x="561" d="M47 518q104 174 295 424h182q-154 -219 -268 -424q113 -203 268 -426h-182q-197 264 -295 426z" />
<glyph unicode="&#x203a;" horiz-adv-x="561" d="M37 92q156 223 268 426q-115 205 -268 424h182q190 -250 295 -424q-98 -162 -295 -426h-182z" />
<glyph unicode="&#x20ac;" d="M80 463v143h121q-4 57 -4 94q0 61 6 127h-123v142h147q49 213 185 336q139 127 383 127q98 0 254 -19v-160q-111 18 -236 19q-299 0 -385 -303h543v-142h-576q-8 -55 -8 -129q0 -47 6 -92h578v-143h-557q35 -150 115.5 -243t218.5 -93q113 0 319 80v-156 q-231 -80 -369 -80q-211 0 -338 158q-106 129 -143 334h-137z" />
<glyph unicode="&#x2122;" horiz-adv-x="2064" d="M37 1268v135h723v-135h-277v-707h-170v707h-276zM926 561v842h217l241 -647h5l233 647h215v-842h-166v592h-4l-225 -592h-139l-232 588v-588h-145z" />
<glyph unicode="&#xe000;" horiz-adv-x="1035" d="M0 1035h1035v-1035h-1035v1035z" />
<glyph unicode="&#xfb01;" horiz-adv-x="1232" d="M20 887v147h173q0 260 129 369q113 94 378 94q133 0 281 -16v-152q-147 14 -279 14q-193 0 -260 -69.5t-67 -239.5h665v-1034h-182v887h-483v-887h-182v887h-173z" />
<glyph unicode="&#xfb02;" horiz-adv-x="1232" d="M20 887v147h173q0 131 26.5 219t99.5 150q117 94 392 94q145 0 329 -16v-1481h-182v1337q-74 6 -156 6q-193 0 -260 -69.5t-67 -239.5h305v-147h-305v-887h-182v887h-173z" />
<glyph unicode="&#xfb03;" horiz-adv-x="1898" d="M20 887v147h173q0 121 19 209t85 156q98 98 301 98q72 0 186 -12v-156q-92 14 -161 14q-145 0 -195.5 -68.5t-52.5 -240.5h483q0 260 129 369q113 94 379 94q133 0 281 -16v-152q-147 14 -279 14q-193 0 -260.5 -69.5t-67.5 -239.5h666v-1034h-182v887h-484v-887h-182 v887h-483v-887h-182v887h-173z" />
<glyph unicode="&#xfb04;" horiz-adv-x="1898" d="M20 887v147h173q0 121 19 209t85 156q98 98 301 98q72 0 186 -12v-156q-92 14 -161 14q-145 0 -195.5 -68.5t-52.5 -240.5h483q0 131 26.5 219t100.5 150q117 94 391 94q145 0 330 -16v-1481h-182v1337q-74 6 -156 6q-193 0 -260.5 -69.5t-67.5 -239.5h306v-147h-306 v-887h-182v887h-483v-887h-182v887h-173z" />
</font>
</defs>
</svg>
